<?xml version="1.0" encoding="UTF-8"?>
<svg width="256px" height="256px" viewBox="0 0 256 256" version="1.1" xmlns="http://www.w3.org/2000/svg" xmlns:xlink="http://www.w3.org/1999/xlink">
    <title>bx:bx-basketball</title>
    <g id="Page-1" stroke="none" stroke-width="1" fill="none" fill-rule="evenodd">
        <g id="bx:bx-basketball">
            <rect id="ViewBox" x="0" y="0" width="256" height="256"></rect>
            <path d="M52.576,203.424 C72.7893333,223.637333 99.5626667,234.762667 128,234.762667 C156.437333,234.762667 183.221333,223.637333 203.424,203.424 C245.013333,161.834667 245.013333,94.1653333 203.424,52.5653333 C183.221333,32.3626667 156.426667,21.2266667 128,21.2266667 C99.5733333,21.2266667 72.7786667,32.3626667 52.576,52.576 C10.9866667,94.1546667 10.9866667,161.834667 52.576,203.424 Z M131.296,42.7306667 C149.110606,43.3719005 166.264681,49.6375812 180.298667,60.6293333 L128,112.917333 L112.426667,97.344 C124.810667,81.568 131.541333,62.0586667 131.296,42.7306667 Z M97.1733333,82.0906667 L75.712,60.6293333 C85.7873472,52.7318418 97.5240323,47.2245719 110.037333,44.5226667 C109.877333,57.7066667 105.290667,70.944 97.1733333,82.0906667 L97.1733333,82.0906667 Z M81.984,97.0666667 C71.118274,104.489958 58.2471248,108.423119 45.088,108.341333 C47.8596143,96.4743382 53.1648775,85.3471128 60.64,75.7226667 L81.984,97.0666667 Z M42.784,129.557333 C43.6053333,129.578667 44.4266667,129.706667 45.248,129.706667 C64.0180222,129.766558 82.2906418,123.674436 97.2693333,112.362667 L112.917333,128 L60.64,180.277333 C49.3585369,165.747125 43.0931711,147.950342 42.784,129.557333 L42.784,129.557333 Z M173.92,158.837333 C185.034667,150.752 198.24,146.165333 211.338667,145.973333 C208.670182,158.468818 203.211467,170.199403 195.370667,180.288 L173.92,158.837333 L173.92,158.837333 Z M180.288,195.370667 C170.669666,202.889366 159.538656,208.238365 147.658667,211.050667 C147.538294,197.842854 151.473635,184.91617 158.933333,174.016 L180.288,195.370667 Z M126.485333,213.354667 C108.048582,213.061363 90.2137857,206.745575 75.7013333,195.370667 L128,143.082667 L143.605333,158.688 C131.84,174.090667 125.909333,193.525333 126.485333,213.354667 Z M213.141333,124.714667 C193.866667,124.522667 174.389333,131.221333 158.656,143.573333 L143.082667,128 L195.36,75.7226667 C206.271577,89.7881784 212.491213,106.924825 213.141333,124.714667 L213.141333,124.714667 Z" id="Shape" fill="#BFCBD9" fill-rule="nonzero"></path>
        </g>
    </g>
</svg>