<?xml version="1.0" encoding="UTF-8"?>
<svg width="256px" height="256px" viewBox="0 0 256 256" version="1.1" xmlns="http://www.w3.org/2000/svg" xmlns:xlink="http://www.w3.org/1999/xlink">
    <title>emojione-monotone:person-lifting-weights</title>
    <g id="Page-1" stroke="none" stroke-width="1" fill="none" fill-rule="evenodd">
        <g id="emojione-monotone:person-lifting-weights">
            <rect id="ViewBox" x="0" y="0" width="256" height="256"></rect>
            <path d="M235.564,26.496 L239.492,15.572 L218.908,8 L206.372,42.824 C206.136,38.176 203.18,34.524 198.064,33.024 C196.702573,32.6135946 195.289871,32.3981205 193.868,32.384 C190.54,32.384 186.14,33.696 183.304,39.652 C182.962428,39.8454809 182.636145,40.0647863 182.328,40.308 C167.428,38.028 149.356,36.384 127.96,36.384 C106.592,36.384 88.544,38.028 73.66,40.3 C73.3521122,40.057623 73.0257893,39.8396286 72.684,39.648 C69.852,33.696 65.452,32.384 62.128,32.384 C60.7061549,32.3984425 59.2934984,32.6139096 57.932,33.024 C55.736,33.664 53.908,34.704 52.5,36.108 C50.7418949,37.8931207 49.710997,40.268606 49.608,42.772 L37.092,8 L16.508,15.572 L20.44,26.496 L8,31.072 L28.452,87.9 L40.896,83.316 L44.828,94.24 L62.824,87.612 L66.844,103.976 L98.86,149.376 L98.852,185.956 L98.952,185.956 L89.388,193.144 C83.264,197.784 80.816,202.136 80.816,207.268 L80.816,233.152 L80.784,233.152 C75.284,233.152 70.824,241.988 70.824,247.956 L70.824,248 L98.848,248 L98.848,213.476 L114.112,201.436 L114.212,201.436 C116.146823,199.725198 118.637318,198.775626 121.22,198.764 L134.76,198.764 C138.22,198.764 142.324,201.888 142.324,201.888 L157.136,213.472 L157.136,248 L185.16,248 L185.16,247.952 C185.16,241.984 180.708,233.148 175.2,233.148 L175.16,233.148 L175.16,207.264 C175.16,202.132 172.716,197.78 166.596,193.14 L157.032,185.952 L157.132,185.952 L157.132,149.368 L189.072,103.988 L193.156,87.604 L211.164,94.24 L215.092,83.316 L227.536,87.9 L248,31.072 L235.564,26.496 M94.852,244 L75.52,244 C76.7,240.392 79.128,237.148 80.788,237.148 L94.852,237.148 L94.852,244 M161.14,237.148 L175.204,237.148 C176.86,237.148 179.284,240.38 180.464,244 L161.14,244 L161.14,237.148 M159.228,85.5 C159.444,85.408 161.392,84.492 162.344,82.552 C162.74,81.9 163.048,80.92 163.368,79.264 C165.5,79.14 166.492,81.124 166.492,85.36 C166.492,90.144 164.6,92.46 160.36,92.856 L159.132,92.968 L158.976,94.192 C157,109.396 136.228,119.044 128,119.044 C119.756,119.044 98.996,109.396 97.02,94.192 L96.86,92.968 L95.632,92.856 C91.396,92.46 89.508,90.144 89.508,85.36 C89.508,81.308 90.468,79.256 92.356,79.256 L92.624,79.264 C92.932,80.896 93.24,81.884 93.58,82.42 C94.592,84.496 96.548,85.408 96.768,85.504 L99.312,86.632 L98.92,83.88 C98.916,83.848 98.504,80.876 98.652,76.972 C99.564,63.46 100.48,62.332 103.076,62.332 C104.376,62.332 106.192,62.68 108.48,63.132 C112.964,64.016 119.108,65.22 128,65.22 C136.892,65.22 143.036,64.012 147.524,63.132 C149.808,62.68 151.624,62.332 152.924,62.332 C155.52,62.332 156.44,63.46 157.344,76.928 C157.492,80.872 157.08,83.844 157.072,83.876 L156.68,86.628 L159.228,85.5 M59.064,36.864 C60.2,36.532 61.216,36.384 62.132,36.384 C65.716,36.384 67.708,38.66 68.92,41.076 C63.7981299,41.9355736 58.7026013,42.945342 53.64,44.104 C53.172,38.628 58.08,37.148 59.064,36.864 M69.796,99.24 L59.108,55.724 C57.38,55.528 56.516,54.16 55.424,50.872 C59.9891432,49.8539277 64.5800339,48.9549561 69.192,48.176 L68.516,45.6 C67.692,42.42 71.152,41.228 72.384,44.88 L73.428,48.164 C73.713734,49.116133 73.6090833,50.1428129 73.1371176,51.0177127 C72.665152,51.8926124 71.8646216,52.5438993 70.912,52.828 L70.592,52.92 L81.364,96.632 L69.796,99.24 M107.328,127.204 L86.192,99.492 L75.192,54.86 C75.763775,54.314262 76.2469168,53.6826689 76.624,52.988 C77.6283215,51.1735902 77.8604153,49.0314076 77.268,47.044 L77.236,46.932 C85.4594579,45.783318 93.7223738,44.9374131 102.008,44.396 C93.356,50.24 90.412,60.744 90.22,76.62 C88.328,77.428 86.428,79.644 86.428,85.364 C86.428,92.628 90.388,95.08 94.148,95.768 C96.412,107.74 109.052,116.876 119.516,120.464 L119.516,124.164 C118.964,124.896 117.004,126.128 114.996,127.212 L107.328,127.212 L107.328,127.204 Z M128,137.416 C123.318944,137.402348 118.990817,134.925225 116.608,130.896 C119.864,129.216 123.516,126.812 123.516,124.448 L123.516,121.6 C125.136,121.944 126.652,122.132 128,122.132 C129.336,122.132 130.836,121.948 132.444,121.608 L132.444,124.448 C132.444,126.812 136.108,129.22 139.372,130.9 C136.994159,134.923933 132.673958,137.399349 128,137.416 M148.656,127.204 L140.984,127.204 C138.968,126.12 137,124.888 136.444,124.152 L136.444,120.468 C146.912,116.888 159.576,107.744 161.844,95.76 C165.612,95.076 169.576,92.624 169.576,85.356 C169.576,78.664 166.972,76.76 164.824,76.312 C164.668,60.42 162.116,50.104 153.612,44.368 L153.744,44.376 C162.856,44.976 171.192,45.868 178.752,46.936 L178.716,47.048 C177.891846,49.8362774 178.69811,52.8512691 180.804,54.856 L169.848,99.3 L148.656,127.204 M196.884,55.724 L186.188,99.24 L174.624,96.64 L185.396,52.928 L185.076,52.836 C184.12252,52.5526572 183.320777,51.9019176 182.847362,51.027112 C182.373947,50.1523065 182.267691,49.1251923 182.552,48.172 L183.616,44.86 C184.964,41.108 188.256,42.636 187.468,45.608 L186.792,48.192 C191.796,49.036 196.352,49.952 200.56,50.892 C199.472,54.164 198.612,55.528 196.884,55.724 M187.072,41.084 C188.284,38.668 190.28,36.384 193.868,36.384 C194.784,36.384 195.804,36.532 196.94,36.864 C197.916,37.148 202.828,38.628 202.356,44.116 C197.291623,42.9582266 192.194826,41.9471374 187.072,41.084" id="Shape" fill="#BFCBD9" fill-rule="nonzero"></path>
            <path d="M119.592051,86.084 C119.598496,84.5424447 118.986792,83.0626148 117.893735,81.9755721 C116.800678,80.8885294 115.317496,80.2849988 113.776,80.3 C110.56,80.3 107.955964,82.832 107.955964,86.084 C107.950564,87.6255637 108.563289,89.1049766 109.657098,90.1912682 C110.750907,91.2775599 112.23451,91.8800676 113.776,91.864 C115.3168,91.8789903 116.799368,91.2760062 117.892307,90.1898325 C118.985246,89.1036587 119.597423,87.6248632 119.592051,86.084" id="Path" fill="#BFCBD9" fill-rule="nonzero"></path>
            <path d="M142.22,80.296 C140.677814,80.279921 139.193596,80.882975 138.099669,81.9701358 C137.005742,83.0572965 136.39349,84.5377442 136.399949,86.08 C136.399949,89.332 138.996,91.86 142.22,91.86 C143.76149,91.8760676 145.245093,91.2735599 146.338902,90.1872682 C147.432711,89.1009766 148.045436,87.6215637 148.040036,86.08 C148.040036,82.828 145.432,80.296 142.22,80.296" id="Path" fill="#BFCBD9" fill-rule="nonzero"></path>
            <path d="M137.284,103.784 C131.304,108.484 124.656,108.484 118.7,103.784 C117.984,103.244 117.332,104.148 117.824,105.048 C119.64,108.48 123.304,111.368 127.992,111.368 C132.688,111.368 136.352,108.48 138.164,105.048 C138.656,104.148 138.004,103.248 137.284,103.784" id="Path" fill="#BFCBD9" fill-rule="nonzero"></path>
        </g>
    </g>
</svg>