<?xml version="1.0" encoding="UTF-8"?>
<svg width="256px" height="256px" viewBox="0 0 256 256" version="1.1" xmlns="http://www.w3.org/2000/svg" xmlns:xlink="http://www.w3.org/1999/xlink">
    <title>majesticons:user-add</title>
    <g id="Page-1" stroke="none" stroke-width="1" fill="none" fill-rule="evenodd">
        <g id="majesticons:user-add">
            <rect id="ViewBox" x="0" y="0" width="256" height="256"></rect>
            <g id="Group" transform="translate(0.000000, 32.000000)" fill="#BFCBD9">
                <path d="M21.3333333,64 C21.337282,33.9745588 42.2137992,7.98848299 71.532883,1.51403615 C100.851967,-4.96041069 130.730302,9.81762072 143.37815,37.0492029 C156.025998,64.2807852 148.042606,96.6438901 124.181333,114.869333 C151.317333,127.008 170.666667,151.552 170.666667,181.333333 C170.666667,187.224371 165.891037,192 160,192 L10.6666667,192 C4.77562934,192 0,187.224371 0,181.333333 C0,151.552 19.3493333,127.008 46.4853333,114.869333 C30.6181242,102.770561 21.31423,83.9536523 21.3333333,64 L21.3333333,64 Z M224,64 C224,58.1089627 219.224371,53.3333333 213.333333,53.3333333 C207.442296,53.3333333 202.666667,58.1089627 202.666667,64 L202.666667,85.3333333 L181.333333,85.3333333 C175.442296,85.3333333 170.666667,90.1089627 170.666667,96 C170.666667,101.891037 175.442296,106.666667 181.333333,106.666667 L202.666667,106.666667 L202.666667,128 C202.666667,133.891037 207.442296,138.666667 213.333333,138.666667 C219.224371,138.666667 224,133.891037 224,128 L224,106.666667 L245.333333,106.666667 C251.224371,106.666667 256,101.891037 256,96 C256,90.1089627 251.224371,85.3333333 245.333333,85.3333333 L224,85.3333333 L224,64 Z" id="Shape"></path>
            </g>
        </g>
    </g>
</svg>