<?xml version="1.0" encoding="UTF-8"?>
<svg width="256px" height="256px" viewBox="0 0 256 256" version="1.1" xmlns="http://www.w3.org/2000/svg" xmlns:xlink="http://www.w3.org/1999/xlink">
    <title>maki:swimming-11</title>
    <g id="Page-1" stroke="none" stroke-width="1" fill="none" fill-rule="evenodd">
        <g id="maki:swimming-11">
            <rect id="ViewBox" x="0" y="0" width="256" height="256"></rect>
            <path d="M186.274909,11.4967273 L169.984,23.1796364 L107.147636,60.4625455 C100.165818,62.7665455 97.8385455,74.3796364 102.446545,81.3614545 L116.410182,104.680727 L58.2283636,151.226182 L81.5010909,174.545455 L128.046545,151.226182 L174.638545,174.545455 L197.911273,151.226182 L128.046545,69.7250909 L197.911273,34.816 L197.911273,11.4967273 L186.274909,11.4967273 Z M209.594182,69.7250647 C201.263008,69.712619 193.558032,74.1457228 189.381644,81.354495 C185.205257,88.5632672 185.191949,97.4525239 189.346735,104.673768 C193.501521,111.895012 201.19319,116.351165 209.524364,116.363663 C222.396816,116.382916 232.847629,105.963361 232.866936,93.0909091 C232.886189,80.218457 222.466634,69.7676434 209.594182,69.7483636 L209.594182,69.7250647 Z M46.5454545,186.135273 L0,209.454545 L0,232.727273 L46.5454545,209.454545 L81.4545455,232.727273 L128,209.454545 L174.545455,232.727273 L209.454545,209.454545 L256,232.727273 L256,209.454545 L209.454545,186.135273 L174.545455,209.454545 L128,186.135273 L81.4545455,209.454545 L46.5454545,186.135273 Z" id="Shape" fill="#BFCBD9" fill-rule="nonzero"></path>
        </g>
    </g>
</svg>