<?xml version="1.0" encoding="UTF-8"?>
<svg width="256px" height="256px" viewBox="0 0 256 256" version="1.1" xmlns="http://www.w3.org/2000/svg" xmlns:xlink="http://www.w3.org/1999/xlink">
    <title>majesticons:users</title>
    <g id="Page-1" stroke="none" stroke-width="1" fill="none" fill-rule="evenodd">
        <g id="majesticons:users">
            <rect id="ViewBox" x="0" y="0" width="256" height="256"></rect>
            <g id="Group" transform="translate(10.666667, 21.333333)" fill="#BFCBD9">
                <path d="M21.3333333,74.6666667 C21.337282,44.6412254 42.2137992,18.6551497 71.532883,12.1807028 C100.851967,5.70625597 130.730302,20.4842874 143.37815,47.7158696 C156.025998,74.9474518 148.042606,107.310557 124.181333,125.536 C151.317333,137.674667 170.666667,162.218667 170.666667,192 C170.666667,197.891037 165.891037,202.666667 160,202.666667 L10.6666667,202.666667 C4.77562934,202.666667 0,197.891037 0,192 C0,162.218667 19.3493333,137.674667 46.4853333,125.536 C30.6181242,113.437228 21.31423,94.620319 21.3333333,74.6666667 L21.3333333,74.6666667 Z M224,202.666667 L181.333333,202.666667 C187.224371,202.666667 192,197.891037 192,192 C192,162.218667 172.650667,137.674667 145.514667,125.536 C164.190205,111.269542 173.548013,87.9176989 169.892533,64.7025088 C166.237054,41.4873187 150.15598,22.1410996 128,14.304 C157.718658,3.75436252 190.692865,16.425401 205.699367,44.1616295 C220.705869,71.8978581 213.271532,106.43167 188.181333,125.536 C215.317333,137.674667 234.666667,162.218667 234.666667,192 C234.666667,197.891037 229.891037,202.666667 224,202.666667 Z" id="Shape"></path>
            </g>
        </g>
    </g>
</svg>