<?xml version="1.0" encoding="UTF-8"?>
<svg width="256px" height="256px" viewBox="0 0 256 256" version="1.1" xmlns="http://www.w3.org/2000/svg" xmlns:xlink="http://www.w3.org/1999/xlink">
    <title>mdi:yoga</title>
    <g id="Page-1" stroke="none" stroke-width="1" fill="none" fill-rule="evenodd">
        <g id="mdi:yoga">
            <rect id="ViewBox" x="0" y="0" width="256" height="256"></rect>
            <path d="M138.666667,21.3333333 C126.884592,21.3333333 117.333333,30.884592 117.333333,42.6666667 C117.333333,54.4487413 126.884592,64 138.666667,64 C150.506667,64 160,54.5066667 160,42.6666667 C160,30.884592 150.448741,21.3333333 138.666667,21.3333333 M42.6666667,74.6666667 L42.6666667,96 L106.666667,96 L106.666667,160 L52.5866667,214.08 L67.6266667,229.333333 L139.306667,157.546667 L181.333333,182.72 L181.333333,224 L202.666667,224 L202.666667,176.746667 C202.666667,172.906667 200.746667,169.493333 197.333333,167.573333 L160,145.066667 L160,96 L224,96 L224,74.6666667 L42.6666667,74.6666667 Z" id="Shape" fill="#BFCBD9" fill-rule="nonzero"></path>
        </g>
    </g>
</svg>